<svg width="41" height="35" viewBox="0 0 41 35" fill="none" xmlns="http://www.w3.org/2000/svg">
    <path d="M22.0818 22.8725L17.4636 18.48L17.5182 18.4275C20.5985 15.1324 22.8998 11.2337 24.2636 7H29.5909V3.5H16.8636V0H13.2273V3.5H0.5V7H20.8091C19.5909 10.36 17.6636 13.5625 15.0455 16.3625C13.3545 14.56 11.9545 12.5825 10.8455 10.5H7.20909C8.53636 13.3525 10.3545 16.0475 12.6273 18.48L3.37273 27.265L5.95455 29.75L15.0455 21L20.7 26.4425L22.0818 22.8725ZM32.3182 14H28.6818L20.5 35H24.1364L26.1727 29.75H34.8091L36.8636 35H40.5L32.3182 14ZM27.5545 26.25L30.5 18.6725L33.4455 26.25H27.5545Z" fill="#F3F4F6"/>
</svg>
