<svg width="45" height="46" viewBox="0 0 45 46" fill="none" xmlns="http://www.w3.org/2000/svg">
    <path d="M39.2963 29.2344C39.6788 28.3231 38.5856 27.5469 37.6688 27.9519C35.8361 28.7563 33.8559 29.1701 31.8544 29.1669C24.0075 29.1669 17.6475 22.9344 17.6475 15.245C17.6446 12.6488 18.3822 10.1056 19.7737 7.91374C20.3062 7.07374 19.6669 5.91124 18.6919 6.15874C11.175 8.07686 5.625 14.7744 5.625 22.7412C5.625 32.2044 13.4531 39.875 23.1113 39.875C30.4238 39.875 36.6863 35.4781 39.2963 29.2344Z" fill="#F3F4F6"/>
    <path d="M29.2707 6.31813C28.277 5.65438 27.092 6.83938 27.7538 7.83313L28.9351 9.60501C29.4143 10.3234 29.67 11.1677 29.67 12.0313C29.67 12.8948 29.4143 13.7391 28.9351 14.4575L27.7538 16.2294C27.092 17.2231 28.2788 18.4081 29.2726 17.7444L31.0426 16.5631C31.761 16.0839 32.6053 15.8282 33.4688 15.8282C34.3324 15.8282 35.1766 16.0839 35.8951 16.5631L37.667 17.7444C38.6607 18.4081 39.8457 17.2231 39.182 16.2294L38.0007 14.4575C37.5215 13.7391 37.2658 12.8948 37.2658 12.0313C37.2658 11.1677 37.5215 10.3234 38.0007 9.60501L39.182 7.83313C39.8457 6.83938 38.6607 5.65438 37.6651 6.31813L35.8951 7.49938C35.1766 7.97857 34.3324 8.23429 33.4688 8.23429C32.6053 8.23429 31.761 7.97857 31.0426 7.49938L29.2707 6.31813Z" fill="#C7EEFF"/>
</svg>
