<svg width="45" height="46" viewBox="0 0 45 46" fill="none" xmlns="http://www.w3.org/2000/svg">
    <path d="M31.875 23C31.875 25.4864 30.8873 27.871 29.1291 29.6291C27.371 31.3873 24.9864 32.375 22.5 32.375C20.0136 32.375 17.629 31.3873 15.8709 29.6291C14.1127 27.871 13.125 25.4864 13.125 23C13.125 20.5136 14.1127 18.129 15.8709 16.3709C17.629 14.6127 20.0136 13.625 22.5 13.625C24.9864 13.625 27.371 14.6127 29.1291 16.3709C30.8873 18.129 31.875 20.5136 31.875 23Z" fill="#06283D"/>
    <path fill-rule="evenodd" clip-rule="evenodd" d="M22.5 2.84375C22.873 2.84375 23.2306 2.99191 23.4944 3.25563C23.7581 3.51935 23.9062 3.87704 23.9062 4.25V8C23.9062 8.37296 23.7581 8.73065 23.4944 8.99437C23.2306 9.25809 22.873 9.40625 22.5 9.40625C22.127 9.40625 21.7694 9.25809 21.5056 8.99437C21.2419 8.73065 21.0938 8.37296 21.0938 8V4.25C21.0938 3.87704 21.2419 3.51935 21.5056 3.25563C21.7694 2.99191 22.127 2.84375 22.5 2.84375ZM2.34375 23C2.34375 22.627 2.49191 22.2694 2.75563 22.0056C3.01935 21.7419 3.37704 21.5938 3.75 21.5938H7.5C7.87296 21.5938 8.23065 21.7419 8.49437 22.0056C8.75809 22.2694 8.90625 22.627 8.90625 23C8.90625 23.373 8.75809 23.7306 8.49437 23.9944C8.23065 24.2581 7.87296 24.4062 7.5 24.4062H3.75C3.37704 24.4062 3.01935 24.2581 2.75563 23.9944C2.49191 23.7306 2.34375 23.373 2.34375 23ZM36.0938 23C36.0938 22.627 36.2419 22.2694 36.5056 22.0056C36.7694 21.7419 37.127 21.5938 37.5 21.5938H41.25C41.623 21.5938 41.9806 21.7419 42.2444 22.0056C42.5081 22.2694 42.6562 22.627 42.6562 23C42.6562 23.373 42.5081 23.7306 42.2444 23.9944C41.9806 24.2581 41.623 24.4062 41.25 24.4062H37.5C37.127 24.4062 36.7694 24.2581 36.5056 23.9944C36.2419 23.7306 36.0938 23.373 36.0938 23ZM22.5 36.5938C22.873 36.5938 23.2306 36.7419 23.4944 37.0056C23.7581 37.2694 23.9062 37.627 23.9062 38V41.75C23.9062 42.123 23.7581 42.4806 23.4944 42.7444C23.2306 43.0081 22.873 43.1562 22.5 43.1562C22.127 43.1562 21.7694 43.0081 21.5056 42.7444C21.2419 42.4806 21.0938 42.123 21.0938 41.75V38C21.0938 37.627 21.2419 37.2694 21.5056 37.0056C21.7694 36.7419 22.127 36.5938 22.5 36.5938Z" fill="#06283D"/>
    <path d="M6.88116 7.46751C7.13264 7.19245 7.48303 7.02847 7.85535 7.01159C8.22766 6.99472 8.59145 7.12633 8.86678 7.37751L13.0312 11.1875C13.3006 11.4406 13.4596 11.7896 13.4737 12.159C13.4878 12.5284 13.3558 12.8885 13.1064 13.1614C12.8569 13.4343 12.5101 13.5979 12.1409 13.6169C11.7717 13.636 11.4098 13.5089 11.1337 13.2631L6.96928 9.45314C6.83281 9.32859 6.72221 9.17836 6.64382 9.01105C6.56543 8.84374 6.52078 8.66262 6.51243 8.47804C6.50407 8.29346 6.53217 8.10905 6.59511 7.93533C6.65806 7.76162 6.75462 7.60202 6.87928 7.46564L6.88116 7.46751ZM38.1224 7.46751C38.2472 7.60377 38.3439 7.76328 38.407 7.93693C38.4701 8.11057 38.4984 8.29495 38.4902 8.47952C38.482 8.6641 38.4375 8.84525 38.3593 9.01263C38.2811 9.18001 38.1706 9.33034 38.0343 9.45501L33.8662 13.2613C33.7314 13.3933 33.5714 13.4969 33.3957 13.5659C33.22 13.6348 33.0323 13.6677 32.8436 13.6625C32.655 13.6574 32.4693 13.6143 32.2977 13.5359C32.126 13.4575 31.9719 13.3453 31.8445 13.2061C31.7171 13.0669 31.6191 12.9034 31.5562 12.7255C31.4933 12.5476 31.4668 12.3588 31.4784 12.1705C31.49 11.9821 31.5394 11.798 31.6236 11.6291C31.7078 11.4603 31.8252 11.3101 31.9687 11.1875L36.1349 7.37751C36.2713 7.25285 36.4309 7.15629 36.6046 7.09334C36.7783 7.0304 36.9627 7.0023 37.1473 7.01066C37.3319 7.01901 37.513 7.06366 37.6803 7.14205C37.8476 7.22044 37.9979 7.33104 38.1224 7.46751ZM31.9237 32.4219C32.1873 32.1585 32.5448 32.0106 32.9174 32.0106C33.2901 32.0106 33.6475 32.1585 33.9112 32.4219L38.0793 36.5881C38.2135 36.7179 38.3206 36.8731 38.3942 37.0448C38.4678 37.2164 38.5065 37.4009 38.5081 37.5876C38.5096 37.7743 38.4739 37.9595 38.4031 38.1323C38.3324 38.3051 38.2279 38.462 38.0958 38.594C37.9637 38.726 37.8066 38.8303 37.6338 38.901C37.4609 38.9716 37.2757 39.0071 37.089 39.0054C36.9023 39.0037 36.7178 38.9648 36.5462 38.891C36.3747 38.8172 36.2196 38.71 36.0899 38.5756L31.9237 34.4094C31.6603 34.1457 31.5124 33.7883 31.5124 33.4156C31.5124 33.043 31.6603 32.6856 31.9237 32.4219ZM13.078 32.4219C13.3414 32.6856 13.4893 33.043 13.4893 33.4156C13.4893 33.7883 13.3414 34.1457 13.078 34.4094L8.91178 38.5775C8.64521 38.8259 8.29262 38.9611 7.9283 38.9547C7.56399 38.9483 7.21639 38.8007 6.95874 38.5431C6.70109 38.2854 6.55351 37.9378 6.54708 37.5735C6.54065 37.2092 6.67588 36.8566 6.92428 36.59L11.0905 32.4219C11.3542 32.1585 11.7116 32.0106 12.0843 32.0106C12.4569 32.0106 12.8144 32.1585 13.078 32.4219Z" fill="#C7EEFF"/>
</svg>
